<?xml version="1.0" encoding="iso-8859-1"?>
<!-- Generator: Adobe Illustrator 22.0.0, SVG Export Plug-In . SVG Version: 6.00 Build 0)  -->
<svg version="1.1" id="Capa_1" xmlns="http://www.w3.org/2000/svg" xmlns:xlink="http://www.w3.org/1999/xlink" x="0px" y="0px"
	 viewBox="0 0 512 512" style="enable-background:new 0 0 512 512;" xml:space="preserve">
<g>
	<g>
		<path d="M344.895,260.083c4.143,0,7.5-3.358,7.5-7.5v-54.163c0-3.126-1.939-5.925-4.866-7.022l-88.895-33.335
			c-1.699-0.637-3.568-0.637-5.268,0l-88.895,33.335c-2.927,1.098-4.866,3.896-4.866,7.022V222.5c0,4.142,3.357,7.5,7.5,7.5
			s7.5-3.358,7.5-7.5v-13.257l73.895,27.71v99.139l-73.895-27.71v-50.798c0-4.142-3.357-7.5-7.5-7.5s-7.5,3.358-7.5,7.5v55.996
			c0,3.126,1.939,5.925,4.866,7.022l88.895,33.335c0.001-0.006,0.003-0.014,0.004-0.021c0.845,0.317,1.733,0.498,2.631,0.498
			c0.887,0,1.779-0.157,2.633-0.478l88.895-33.335c2.927-1.098,4.866-3.896,4.866-7.022v-26.038c0-4.142-3.357-7.5-7.5-7.5
			s-7.5,3.358-7.5,7.5v20.84L263.5,336.092v-99.139l73.895-27.71v43.34C337.395,256.726,340.752,260.083,344.895,260.083z
			 M256,223.746l-67.534-25.325L256,173.095l67.534,25.326L256,223.746z"/>
		<path d="M248.5,74.86v53.86c0,4.142,3.357,7.5,7.5,7.5s7.5-3.358,7.5-7.5V74.86c17.265-3.489,30.305-18.777,30.305-37.055
			C293.805,16.959,276.846,0,256,0s-37.805,16.959-37.805,37.805C218.195,56.083,231.235,71.371,248.5,74.86z M256,15
			c12.574,0,22.805,10.23,22.805,22.805S268.574,60.61,256,60.61s-22.805-10.23-22.805-22.805S243.426,15,256,15z"/>
		<path d="M400.287,348.34c-11.623,0-22.365,3.837-31.029,10.311l-17.953-17.953c-2.93-2.929-7.678-2.929-10.607,0
			c-2.929,2.929-2.929,7.678,0,10.606l17.954,17.953c-6.474,8.664-10.311,19.407-10.311,31.029
			c0,28.644,23.304,51.947,51.947,51.947s51.947-23.303,51.947-51.947S428.931,348.34,400.287,348.34z M400.287,437.234
			c-20.373,0-36.947-16.575-36.947-36.947s16.574-36.947,36.947-36.947s36.947,16.575,36.947,36.947S420.66,437.234,400.287,437.234
			z"/>
		<path d="M111.713,163.66c11.623,0,22.365-3.837,31.029-10.311l17.953,17.953c1.465,1.464,3.385,2.197,5.304,2.197
			s3.839-0.732,5.304-2.197c2.929-2.929,2.929-7.678,0-10.606l-17.953-17.953c6.474-8.664,10.311-19.407,10.311-31.029
			c0-28.644-23.304-51.947-51.947-51.947s-51.947,23.303-51.947,51.947S83.069,163.66,111.713,163.66z M111.713,74.766
			c20.373,0,36.947,16.575,36.947,36.947s-16.574,36.947-36.947,36.947s-36.947-16.575-36.947-36.947S91.34,74.766,111.713,74.766z"
			/>
		<path d="M263.5,437.14v-53.86c0-4.142-3.357-7.5-7.5-7.5s-7.5,3.358-7.5,7.5v53.86c-17.265,3.489-30.305,18.777-30.305,37.055
			C218.195,495.041,235.154,512,256,512s37.805-16.959,37.805-37.805C293.805,455.917,280.765,440.629,263.5,437.14z M256,497
			c-12.574,0-22.805-10.23-22.805-22.805S243.426,451.39,256,451.39s22.805,10.23,22.805,22.805S268.574,497,256,497z"/>
		<path d="M474.195,218.195c-18.278,0-33.566,13.04-37.055,30.305h-53.86c-4.143,0-7.5,3.358-7.5,7.5s3.357,7.5,7.5,7.5h53.86
			c3.489,17.265,18.777,30.305,37.055,30.305C495.041,293.805,512,276.846,512,256S495.041,218.195,474.195,218.195z
			 M474.195,278.805c-12.574,0-22.805-10.23-22.805-22.805s10.23-22.805,22.805-22.805S497,243.425,497,256
			S486.77,278.805,474.195,278.805z"/>
		<path d="M74.86,263.5h53.86c4.143,0,7.5-3.358,7.5-7.5s-3.357-7.5-7.5-7.5H74.86c-3.489-17.265-18.777-30.305-37.055-30.305
			C16.959,218.195,0,235.154,0,256s16.959,37.805,37.805,37.805C56.083,293.805,71.371,280.765,74.86,263.5z M37.805,278.805
			C25.23,278.805,15,268.575,15,256s10.23-22.805,22.805-22.805S60.609,243.425,60.609,256S50.379,278.805,37.805,278.805z"/>
		<path d="M346.001,173.499c1.919,0,3.839-0.732,5.304-2.197l17.953-17.953c8.664,6.474,19.407,10.311,31.029,10.311
			c28.644,0,51.947-23.303,51.947-51.947s-23.304-51.947-51.947-51.947s-51.947,23.303-51.947,51.947
			c0,11.623,3.837,22.365,10.311,31.029l-17.954,17.953c-2.929,2.929-2.929,7.678,0,10.606
			C342.162,172.767,344.082,173.499,346.001,173.499z M400.287,74.766c20.373,0,36.947,16.575,36.947,36.947
			s-16.574,36.947-36.947,36.947s-36.947-16.575-36.947-36.947S379.914,74.766,400.287,74.766z"/>
		<path d="M160.695,340.698l-17.953,17.953c-8.664-6.474-19.407-10.311-31.029-10.311c-28.644,0-51.947,23.303-51.947,51.947
			s23.304,51.947,51.947,51.947s51.947-23.303,51.947-51.947c0-11.623-3.837-22.365-10.311-31.029l17.953-17.953
			c2.929-2.929,2.929-7.678,0-10.606C168.373,337.769,163.625,337.769,160.695,340.698z M111.713,437.234
			c-20.373,0-36.947-16.575-36.947-36.947s16.574-36.947,36.947-36.947s36.947,16.575,36.947,36.947
			S132.086,437.234,111.713,437.234z"/>
	</g>
</g>
<g>
</g>
<g>
</g>
<g>
</g>
<g>
</g>
<g>
</g>
<g>
</g>
<g>
</g>
<g>
</g>
<g>
</g>
<g>
</g>
<g>
</g>
<g>
</g>
<g>
</g>
<g>
</g>
<g>
</g>
</svg>
