<?xml version="1.0" encoding="iso-8859-1"?>
<!-- Generator: Adobe Illustrator 22.0.0, SVG Export Plug-In . SVG Version: 6.00 Build 0)  -->
<svg version="1.1" id="Capa_1" xmlns="http://www.w3.org/2000/svg" xmlns:xlink="http://www.w3.org/1999/xlink" x="0px" y="0px"
	 viewBox="0 0 512 512" style="enable-background:new 0 0 512 512;" xml:space="preserve">
<g>
	<g>
		<path d="M459.694,351.384c3.25,11.078,13.498,19.193,25.612,19.193c14.719,0,26.693-11.974,26.693-26.693
			s-11.975-26.693-26.693-26.693c-12.114,0-22.363,8.115-25.612,19.193h-83.056v-32.478h19.774c1.989,0,3.896-0.79,5.304-2.197
			l18.006-18.007h15.728c3.25,11.078,13.498,19.193,25.613,19.193c14.718,0,26.692-11.975,26.692-26.693
			c0-14.718-11.975-26.693-26.692-26.693c-12.115,0-22.364,8.115-25.613,19.193h-18.834c-1.989,0-3.896,0.79-5.304,2.197
			l-18.006,18.007h-16.668v-43.008c0-4.142-3.357-7.5-7.5-7.5h-35.938v-42.773c0-4.142-3.357-7.5-7.5-7.5s-7.5,3.358-7.5,7.5v42.773
			h-25.406v-98.567c0-20.289-16.506-36.794-36.795-36.794s-36.795,16.506-36.795,36.794v98.567h-25.406v-98.567
			c0-34.298,27.903-62.201,62.201-62.201s62.201,27.903,62.201,62.201V160.5c0,4.142,3.357,7.5,7.5,7.5s7.5-3.358,7.5-7.5v-20.669
			c0-42.569-34.632-77.201-77.201-77.201s-77.201,34.632-77.201,77.201v98.567h-35.938c-4.143,0-7.5,3.358-7.5,7.5v43.008h-16.668
			L100.688,270.9c-1.407-1.407-3.314-2.197-5.304-2.197H76.55c-3.25-11.078-13.499-19.193-25.613-19.193
			c-14.718,0-26.692,11.975-26.692,26.693c0,14.719,11.975,26.693,26.692,26.693c12.115,0,22.364-8.115,25.613-19.193h15.728
			l18.006,18.007c1.407,1.407,3.314,2.197,5.304,2.197h19.774v32.478H52.306c-3.25-11.078-13.498-19.193-25.612-19.193
			C11.975,317.191,0,329.166,0,343.884s11.975,26.693,26.693,26.693c12.114,0,22.363-8.115,25.612-19.193h83.056v32.478h-19.774
			c-1.989,0-3.896,0.79-5.304,2.197l-18.006,18.006H76.55c-3.25-11.078-13.498-19.193-25.613-19.193
			c-14.718,0-26.692,11.974-26.692,26.693s11.975,26.693,26.692,26.693c12.115,0,22.364-8.115,25.613-19.193h18.834
			c1.989,0,3.896-0.79,5.304-2.197l18.006-18.006h16.668v43.008c0,4.142,3.357,7.5,7.5,7.5h33.764c4.143,0,7.5-3.358,7.5-7.5
			s-3.357-7.5-7.5-7.5h-26.264V314.008h211.277V434.37H211.583c-4.143,0-7.5,3.358-7.5,7.5s3.357,7.5,7.5,7.5h157.556
			c4.143,0,7.5-3.358,7.5-7.5v-43.008h16.668l18.006,18.006c1.407,1.407,3.314,2.197,5.304,2.197h18.834
			c3.25,11.078,13.498,19.193,25.613,19.193c14.718,0,26.692-11.975,26.692-26.693s-11.975-26.693-26.692-26.693
			c-12.115,0-22.364,8.115-25.613,19.193h-15.728l-18.006-18.006c-1.407-1.407-3.314-2.197-5.304-2.197h-19.774v-32.478H459.694z
			 M485.307,332.191c6.447,0,11.693,5.246,11.693,11.693c0,6.447-5.246,11.693-11.693,11.693s-11.692-5.246-11.692-11.693
			C473.614,337.437,478.859,332.191,485.307,332.191z M461.063,264.51c6.447,0,11.692,5.246,11.692,11.693
			c0,6.448-5.245,11.693-11.692,11.693s-11.693-5.246-11.693-11.693C449.37,269.756,454.616,264.51,461.063,264.51z M50.937,287.896
			c-6.447,0-11.692-5.246-11.692-11.693c0-6.447,5.245-11.693,11.692-11.693s11.693,5.246,11.693,11.693
			C62.63,282.651,57.384,287.896,50.937,287.896z M26.693,355.577c-6.447,0-11.693-5.246-11.693-11.693
			c0-6.448,5.246-11.693,11.693-11.693s11.692,5.246,11.692,11.693C38.386,350.332,33.141,355.577,26.693,355.577z M50.937,423.258
			c-6.447,0-11.692-5.246-11.692-11.693c0-6.447,5.245-11.693,11.692-11.693s11.693,5.246,11.693,11.693
			C62.63,418.013,57.384,423.258,50.937,423.258z M461.063,399.872c6.447,0,11.692,5.246,11.692,11.693
			c0,6.448-5.245,11.693-11.692,11.693s-11.693-5.246-11.693-11.693C449.37,405.118,454.616,399.872,461.063,399.872z
			 M234.205,139.831c0-12.018,9.777-21.794,21.795-21.794s21.795,9.777,21.795,21.794v98.567h-43.59V139.831z M150.361,299.008
			v-15.305h136.222c4.143,0,7.5-3.358,7.5-7.5s-3.357-7.5-7.5-7.5H150.361v-15.305h211.277v15.305h-40.056
			c-4.143,0-7.5,3.358-7.5,7.5s3.357,7.5,7.5,7.5h40.056v15.305H150.361z"/>
		<path d="M256,410.984c4.143,0,7.5-3.358,7.5-7.5v-21.825c11.642-3.28,20.203-13.987,20.203-26.663
			c0-15.276-12.428-27.704-27.703-27.704s-27.703,12.428-27.703,27.704c0,12.676,8.561,23.384,20.203,26.663v21.825
			C248.5,407.626,251.857,410.984,256,410.984z M243.297,354.996c0-7.005,5.698-12.704,12.703-12.704s12.703,5.699,12.703,12.704
			c0,7.004-5.698,12.703-12.703,12.703S243.297,362,243.297,354.996z"/>
	</g>
</g>
<g>
</g>
<g>
</g>
<g>
</g>
<g>
</g>
<g>
</g>
<g>
</g>
<g>
</g>
<g>
</g>
<g>
</g>
<g>
</g>
<g>
</g>
<g>
</g>
<g>
</g>
<g>
</g>
<g>
</g>
</svg>
