<?xml version="1.0" encoding="iso-8859-1"?>
<!-- Generator: Adobe Illustrator 22.0.0, SVG Export Plug-In . SVG Version: 6.00 Build 0)  -->
<svg version="1.1" id="Capa_1" xmlns="http://www.w3.org/2000/svg" xmlns:xlink="http://www.w3.org/1999/xlink" x="0px" y="0px"
	 viewBox="0 0 512 512" style="enable-background:new 0 0 512 512;" xml:space="preserve">
<g>
	<path d="M476.96,35.039C454.365,12.444,424.324,0,392.369,0c-31.955,0-61.995,12.444-84.584,35.039l-34.09,34.09
		c-39.416,39.416-46.252,100.412-17.296,147.294l-39.976,39.976c-46.882-28.955-107.879-22.118-147.293,17.297l-34.09,34.09
		c-22.596,22.591-35.04,52.629-35.04,84.584s12.444,61.997,35.039,84.592C57.635,499.556,87.677,512,119.632,512
		c31.954,0,61.994-12.444,84.584-35.039l34.089-34.089c22.594-22.584,35.037-52.627,35.037-84.594
		c0-22.347-6.128-43.886-17.743-62.699l39.982-39.982c18.812,11.616,40.351,17.743,62.698,17.743
		c31.968,0,62.011-12.443,84.593-35.036l34.09-34.09c22.596-22.591,35.039-52.629,35.039-84.584S499.556,57.634,476.96,35.039z
		 M322.712,171.323c2.361-2.361,5.5-3.662,8.839-3.662c3.339,0,6.478,1.301,8.839,3.662l0.287,0.287
		c4.874,4.873,4.874,12.804,0,17.677L189.285,340.679c-2.361,2.361-5.5,3.662-8.839,3.662c-3.339,0-6.478-1.301-8.839-3.662
		l-0.287-0.287c-4.873-4.873-4.873-12.804,0-17.677L322.712,171.323z M258.342,358.279c0,27.96-10.882,54.235-30.643,73.986
		l-34.09,34.091C173.851,486.116,147.579,497,119.632,497c-27.948,0-54.223-10.884-73.985-30.646
		c-19.762-19.762-30.646-46.037-30.646-73.985c0-27.947,10.884-54.219,30.646-73.977l34.09-34.09
		c33.621-33.623,85.191-40.153,125.751-16.968l-18.874,18.874c-10.269-4.685-21.528-7.149-32.89-7.149
		c-21.173,0-41.07,8.242-56.023,23.206l-3.527,3.527c-2.929,2.93-2.929,7.678,0,10.607c1.464,1.464,3.384,2.196,5.303,2.196
		c1.919,0,3.839-0.732,5.303-2.196l3.529-3.529c12.122-12.131,28.251-18.811,45.415-18.811c7.302,0,14.547,1.253,21.38,3.66
		l-14.389,14.389c-10.722,10.723-10.722,28.169,0,38.891l0.287,0.287c5.194,5.193,12.1,8.055,19.446,8.055
		c7.345,0,14.251-2.861,19.445-8.055l14.385-14.385c8.053,22.946,2.43,49.215-15.147,66.792l-34.092,34.092
		c-12.122,12.132-28.25,18.812-45.414,18.812c-17.149,0-33.275-6.682-45.406-18.814c-12.13-12.13-18.811-28.257-18.811-45.411
		s6.681-33.281,18.811-45.411l5.562-5.562c2.929-2.93,2.929-7.678,0-10.607c-2.929-2.928-7.678-2.928-10.606,0l-5.562,5.562
		c-14.964,14.964-23.204,34.858-23.204,56.018s8.241,41.054,23.204,56.017c14.965,14.966,34.857,23.208,56.013,23.208
		c21.173,0,41.07-8.242,56.023-23.207l34.09-34.09c23.365-23.366,29.597-59.184,16.051-88.91l18.872-18.872
		C253.626,322.222,258.342,339.937,258.342,358.279z M466.354,193.608l-34.092,34.092c-19.75,19.76-46.025,30.641-73.985,30.641
		c-18.342,0-36.057-4.716-51.758-13.682l18.868-18.869c10.42,4.749,21.586,7.073,32.707,7.073c20.6,0,41.033-7.954,56.206-23.128
		l34.088-34.088c14.967-14.956,23.209-34.852,23.209-56.025c0-21.156-8.242-41.049-23.207-56.013
		c-30.888-30.886-81.147-30.886-112.035,0l-5.562,5.562c-2.929,2.93-2.929,7.678,0,10.607c2.929,2.928,7.678,2.928,10.606,0
		l5.562-5.562c25.04-25.041,65.783-25.041,90.823,0c12.132,12.131,18.813,28.257,18.813,45.406c0,17.164-6.681,33.293-18.813,45.416
		l-34.09,34.091c-17.577,17.577-43.846,23.199-66.792,15.147l14.382-14.382c10.722-10.723,10.722-28.169,0-38.891l-0.287-0.287
		c-5.194-5.193-12.1-8.055-19.445-8.055c-7.346,0-14.252,2.861-19.446,8.055l-14.387,14.387c-2.407-6.833-3.66-14.079-3.66-21.381
		c0-17.164,6.681-33.292,18.812-45.416l3.528-3.527c2.929-2.929,2.93-7.678,0.001-10.606c-2.93-2.93-7.678-2.929-10.606-0.001
		l-3.526,3.526c-14.966,14.955-23.208,34.851-23.208,56.024c0,11.364,2.464,22.622,7.15,32.891l-18.874,18.874
		c-23.184-40.559-16.654-92.13,16.967-125.751l34.09-34.091C338.15,25.884,364.422,15,392.369,15s54.223,10.884,73.985,30.646
		c19.762,19.762,30.645,46.037,30.645,73.985C496.999,147.578,486.116,173.85,466.354,193.608z"/>
</g>
<g>
</g>
<g>
</g>
<g>
</g>
<g>
</g>
<g>
</g>
<g>
</g>
<g>
</g>
<g>
</g>
<g>
</g>
<g>
</g>
<g>
</g>
<g>
</g>
<g>
</g>
<g>
</g>
<g>
</g>
</svg>
